# xmcd
#
# Track frame offsets: 
#        150
#        11417
#        25137
#        41987
#        57062
#        76715
#        91187
#        103112
#        117065
#        128097
#        143622
#        159360
#        173910
#
# Disc length: 2460 seconds
#
# Revision: 6
# Processed by: cddbd v1.5.2PL0 Copyright (c) Steve Scherf et al.
# Submitted via: ExactAudioCopy v0.90b4
#
DISCID=93099a0d
DTITLE=Various Artist - Chicago The Blues Today! [CD3]
DYEAR=1999
DGENRE=Blues
TTITLE0=Johnny Young's South Side Blues Band - One More Time
TTITLE1=Johnny Young's South Side Blues Band - Kid Man Blues
TTITLE2=Johnny Young's South Side Blues Band - My Black Mare
TTITLE3=Johnny Young's South Side Blues Band - Stealin' Back
TTITLE4=Johnny Young's South Side Blues Band - I Got Mine in Time
TTITLE5=Johnny Young's South Side Blues Band - Tighten Up on It
TTITLE6=The Johnny Shines Blues Band - Dynaflow Blues
TTITLE7=The Johnny Shines Blues Band - Black Spider Blues
TTITLE8=The Johnny Shines Blues Band - Layin' Down My Shoes and Clothe
TTITLE8=s
TTITLE9=The Johnny Shines Blues Band - If I Get Lucky
TTITLE10=Big Walter Horton's Blues Harp Band - Rockin' My Boogie
TTITLE11=The Johnny Shines Blues Band - Mr. Boweevil
TTITLE12=The Johnny Shines Blues Band - Hey, Hey
EXTD=
EXTT0=
EXTT1=
EXTT2=
EXTT3=
EXTT4=
EXTT5=
EXTT6=
EXTT7=
EXTT8=
EXTT9=
EXTT10=
EXTT11=
EXTT12=
PLAYORDER=
